<svg width="1728" height="1117" viewBox="0 0 1728 1117" fill="none" xmlns="http://www.w3.org/2000/svg">
<line y1="23.5" x2="1728" y2="23.5" stroke="black" stroke-opacity="0.03"/>
<line y1="545.5" x2="1728" y2="545.5" stroke="black" stroke-opacity="0.03"/>
<line y1="197.5" x2="1728" y2="197.5" stroke="black" stroke-opacity="0.03"/>
<line y1="719.5" x2="1728" y2="719.5" stroke="black" stroke-opacity="0.03"/>
<line y1="371.5" x2="1728" y2="371.5" stroke="black" stroke-opacity="0.03"/>
<line y1="893.5" x2="1728" y2="893.5" stroke="black" stroke-opacity="0.03"/>
<line y1="52.5" x2="1728" y2="52.5" stroke="black" stroke-opacity="0.03"/>
<line y1="574.5" x2="1728" y2="574.5" stroke="black" stroke-opacity="0.03"/>
<line y1="226.5" x2="1728" y2="226.5" stroke="black" stroke-opacity="0.03"/>
<line y1="748.5" x2="1728" y2="748.5" stroke="black" stroke-opacity="0.03"/>
<line y1="400.5" x2="1728" y2="400.5" stroke="black" stroke-opacity="0.03"/>
<line y1="922.5" x2="1728" y2="922.5" stroke="black" stroke-opacity="0.03"/>
<line y1="81.5" x2="1728" y2="81.5" stroke="black" stroke-opacity="0.03"/>
<line y1="603.5" x2="1728" y2="603.5" stroke="black" stroke-opacity="0.03"/>
<line y1="255.5" x2="1728" y2="255.5" stroke="black" stroke-opacity="0.03"/>
<line y1="777.5" x2="1728" y2="777.5" stroke="black" stroke-opacity="0.03"/>
<line y1="1067.5" x2="1728" y2="1067.5" stroke="black" stroke-opacity="0.03"/>
<line y1="1096.5" x2="1728" y2="1096.5" stroke="black" stroke-opacity="0.03"/>
<line y1="429.5" x2="1728" y2="429.5" stroke="black" stroke-opacity="0.03"/>
<line y1="951.5" x2="1728" y2="951.5" stroke="black" stroke-opacity="0.03"/>
<line y1="110.5" x2="1728" y2="110.5" stroke="black" stroke-opacity="0.03"/>
<line y1="632.5" x2="1728" y2="632.5" stroke="black" stroke-opacity="0.03"/>
<line y1="284.5" x2="1728" y2="284.5" stroke="black" stroke-opacity="0.03"/>
<line y1="806.5" x2="1728" y2="806.5" stroke="black" stroke-opacity="0.03"/>
<line y1="458.5" x2="1728" y2="458.5" stroke="black" stroke-opacity="0.03"/>
<line y1="980.5" x2="1728" y2="980.5" stroke="black" stroke-opacity="0.03"/>
<line y1="139.5" x2="1728" y2="139.5" stroke="black" stroke-opacity="0.03"/>
<line y1="661.5" x2="1728" y2="661.5" stroke="black" stroke-opacity="0.03"/>
<line y1="313.5" x2="1728" y2="313.5" stroke="black" stroke-opacity="0.03"/>
<line y1="835.5" x2="1728" y2="835.5" stroke="black" stroke-opacity="0.03"/>
<line y1="487.5" x2="1728" y2="487.5" stroke="black" stroke-opacity="0.03"/>
<line y1="1009.5" x2="1728" y2="1009.5" stroke="black" stroke-opacity="0.03"/>
<line y1="168.5" x2="1728" y2="168.5" stroke="black" stroke-opacity="0.03"/>
<line y1="690.5" x2="1728" y2="690.5" stroke="black" stroke-opacity="0.03"/>
<line y1="342.5" x2="1728" y2="342.5" stroke="black" stroke-opacity="0.03"/>
<line y1="864.5" x2="1728" y2="864.5" stroke="black" stroke-opacity="0.03"/>
<line y1="516.5" x2="1728" y2="516.5" stroke="black" stroke-opacity="0.03"/>
<line y1="1038.5" x2="1728" y2="1038.5" stroke="black" stroke-opacity="0.03"/>
<line x1="1073.5" y1="2.18557e-08" x2="1073.5" y2="1117" stroke="black" stroke-opacity="0.03"/>
<line x1="551.5" y1="2.18557e-08" x2="551.5" y2="1117" stroke="black" stroke-opacity="0.03"/>
<line x1="899.5" y1="2.18557e-08" x2="899.5" y2="1117" stroke="black" stroke-opacity="0.03"/>
<line x1="377.5" y1="2.18557e-08" x2="377.5" y2="1117" stroke="black" stroke-opacity="0.03"/>
<line x1="725.5" y1="2.18557e-08" x2="725.5" y2="1117" stroke="black" stroke-opacity="0.03"/>
<line x1="203.5" y1="2.18557e-08" x2="203.5" y2="1117" stroke="black" stroke-opacity="0.03"/>
<line x1="1044.5" y1="2.18557e-08" x2="1044.5" y2="1117" stroke="black" stroke-opacity="0.03"/>
<line x1="522.5" y1="2.18557e-08" x2="522.5" y2="1117" stroke="black" stroke-opacity="0.03"/>
<line x1="870.5" y1="2.18557e-08" x2="870.5" y2="1117" stroke="black" stroke-opacity="0.03"/>
<line x1="348.5" y1="2.18557e-08" x2="348.5" y2="1117" stroke="black" stroke-opacity="0.03"/>
<line x1="696.5" y1="2.18557e-08" x2="696.5" y2="1117" stroke="black" stroke-opacity="0.03"/>
<line x1="174.5" y1="2.18557e-08" x2="174.5" y2="1117" stroke="black" stroke-opacity="0.03"/>
<line x1="1015.5" y1="2.18557e-08" x2="1015.5" y2="1117" stroke="black" stroke-opacity="0.03"/>
<line x1="493.5" y1="2.18557e-08" x2="493.5" y2="1117" stroke="black" stroke-opacity="0.03"/>
<line x1="841.5" y1="2.18557e-08" x2="841.5" y2="1117" stroke="black" stroke-opacity="0.03"/>
<line x1="319.5" y1="2.18557e-08" x2="319.5" y2="1117" stroke="black" stroke-opacity="0.03"/>
<line x1="29.5" y1="2.18557e-08" x2="29.5" y2="1117" stroke="black" stroke-opacity="0.03"/>
<line x1="0.5" y1="2.18557e-08" x2="0.499951" y2="1117" stroke="black" stroke-opacity="0.03"/>
<line x1="667.5" y1="2.18557e-08" x2="667.5" y2="1117" stroke="black" stroke-opacity="0.03"/>
<line x1="145.5" y1="2.18557e-08" x2="145.5" y2="1117" stroke="black" stroke-opacity="0.03"/>
<line x1="986.5" y1="2.18557e-08" x2="986.5" y2="1117" stroke="black" stroke-opacity="0.03"/>
<line x1="464.5" y1="2.18557e-08" x2="464.5" y2="1117" stroke="black" stroke-opacity="0.03"/>
<line x1="812.5" y1="2.18557e-08" x2="812.5" y2="1117" stroke="black" stroke-opacity="0.03"/>
<line x1="290.5" y1="2.18557e-08" x2="290.5" y2="1117" stroke="black" stroke-opacity="0.03"/>
<line x1="638.5" y1="2.18557e-08" x2="638.5" y2="1117" stroke="black" stroke-opacity="0.03"/>
<line x1="116.5" y1="2.18557e-08" x2="116.5" y2="1117" stroke="black" stroke-opacity="0.03"/>
<line x1="957.5" y1="2.18557e-08" x2="957.5" y2="1117" stroke="black" stroke-opacity="0.03"/>
<line x1="435.5" y1="2.18557e-08" x2="435.5" y2="1117" stroke="black" stroke-opacity="0.03"/>
<line x1="783.5" y1="2.18557e-08" x2="783.5" y2="1117" stroke="black" stroke-opacity="0.03"/>
<line x1="261.5" y1="2.18557e-08" x2="261.5" y2="1117" stroke="black" stroke-opacity="0.03"/>
<line x1="609.5" y1="2.18557e-08" x2="609.5" y2="1117" stroke="black" stroke-opacity="0.03"/>
<line x1="87.5" y1="2.18557e-08" x2="87.5" y2="1117" stroke="black" stroke-opacity="0.03"/>
<line x1="928.5" y1="2.18557e-08" x2="928.5" y2="1117" stroke="black" stroke-opacity="0.03"/>
<line x1="406.5" y1="2.18557e-08" x2="406.5" y2="1117" stroke="black" stroke-opacity="0.03"/>
<line x1="754.5" y1="2.18557e-08" x2="754.5" y2="1117" stroke="black" stroke-opacity="0.03"/>
<line x1="232.5" y1="2.18557e-08" x2="232.5" y2="1117" stroke="black" stroke-opacity="0.03"/>
<line x1="580.5" y1="2.18557e-08" x2="580.5" y2="1117" stroke="black" stroke-opacity="0.03"/>
<line x1="58.5" y1="2.18557e-08" x2="58.5" y2="1117" stroke="black" stroke-opacity="0.03"/>
<line x1="1653.5" y1="2.18557e-08" x2="1653.5" y2="1117" stroke="black" stroke-opacity="0.03"/>
<line x1="1479.5" y1="2.18557e-08" x2="1479.5" y2="1117" stroke="black" stroke-opacity="0.03"/>
<line x1="1305.5" y1="2.18557e-08" x2="1305.5" y2="1117" stroke="black" stroke-opacity="0.03"/>
<line x1="1624.5" y1="2.18557e-08" x2="1624.5" y2="1117" stroke="black" stroke-opacity="0.03"/>
<line x1="1450.5" y1="2.18557e-08" x2="1450.5" y2="1117" stroke="black" stroke-opacity="0.03"/>
<line x1="1276.5" y1="2.18557e-08" x2="1276.5" y2="1117" stroke="black" stroke-opacity="0.03"/>
<line x1="1595.5" y1="2.18557e-08" x2="1595.5" y2="1117" stroke="black" stroke-opacity="0.03"/>
<line x1="1421.5" y1="2.18557e-08" x2="1421.5" y2="1117" stroke="black" stroke-opacity="0.03"/>
<line x1="1131.5" y1="2.18557e-08" x2="1131.5" y2="1117" stroke="black" stroke-opacity="0.03"/>
<line x1="1102.5" y1="2.18557e-08" x2="1102.5" y2="1117" stroke="black" stroke-opacity="0.03"/>
<line x1="1247.5" y1="2.18557e-08" x2="1247.5" y2="1117" stroke="black" stroke-opacity="0.03"/>
<line x1="1566.5" y1="2.18557e-08" x2="1566.5" y2="1117" stroke="black" stroke-opacity="0.03"/>
<line x1="1392.5" y1="2.18557e-08" x2="1392.5" y2="1117" stroke="black" stroke-opacity="0.03"/>
<line x1="1218.5" y1="2.18557e-08" x2="1218.5" y2="1117" stroke="black" stroke-opacity="0.03"/>
<line x1="1537.5" y1="2.18557e-08" x2="1537.5" y2="1117" stroke="black" stroke-opacity="0.03"/>
<line x1="1363.5" y1="2.18557e-08" x2="1363.5" y2="1117" stroke="black" stroke-opacity="0.03"/>
<line x1="1711.5" y1="2.18557e-08" x2="1711.5" y2="1117" stroke="black" stroke-opacity="0.03"/>
<line x1="1189.5" y1="2.18557e-08" x2="1189.5" y2="1117" stroke="black" stroke-opacity="0.03"/>
<line x1="1508.5" y1="2.18557e-08" x2="1508.5" y2="1117" stroke="black" stroke-opacity="0.03"/>
<line x1="1334.5" y1="2.18557e-08" x2="1334.5" y2="1117" stroke="black" stroke-opacity="0.03"/>
<line x1="1682.5" y1="2.18557e-08" x2="1682.5" y2="1117" stroke="black" stroke-opacity="0.03"/>
<line x1="1160.5" y1="2.18557e-08" x2="1160.5" y2="1117" stroke="black" stroke-opacity="0.03"/>
</svg>
